<svg xmlns="http://www.w3.org/2000/svg" xmlns:xlink="http://www.w3.org/1999/xlink" width="789.772" height="787.35" viewBox="0 0 789.772 787.35">
  <defs>
    <radialGradient id="radial-gradient" cx="1.029" cy="0.011" r="0.76" gradientTransform="matrix(-0.816, -0.578, 0.266, -0.376, 1.866, 0.609)" gradientUnits="objectBoundingBox">
      <stop offset="0" stop-color="#ffcb75"/>
      <stop offset="1" stop-color="#80663b"/>
    </radialGradient>
    <radialGradient id="radial-gradient-2" cx="0.274" cy="0.686" r="0.652" gradientTransform="matrix(0.538, -0.843, 0.738, 0.471, -0.38, 0.594)" xlink:href="#radial-gradient"/>
  </defs>
  <g id="Logo" transform="translate(-544.228 -134.353)">
    <g id="Path_69" data-name="Path 69" transform="translate(544.228 243.232)" fill="none">
      <path d="M388.688,126.292A1473,1473,0,0,1,540.727,85.35c45.934-9.6,86.463-15.226,119.406-16.865,31.957-1.59,56.438.59,71.864,6.423,14.849,5.615,21.217,14.582,17.927,26.767-3.156,11.691-14.932,25.282-33.113,39.755-17.574,13.99-41.27,28.913-69.293,43.923C620.173,200,588.438,214.87,553.751,229.241c-34.228,14.181-71.744,28.045-111.411,40.933s-78.3,23.766-114.559,32.489c-36.75,8.84-71.518,15.577-102.694,19.946-31.951,4.478-60.451,6.514-83.533,5.734-23.879-.807-42.15-4.636-52.4-11.97C78.468,308.728,77.5,298.008,85.4,285c8.212-13.513,25.952-29.411,52.06-46.688,26.913-17.809,62.425-36.891,104.816-55.99C285.421,162.885,335.021,143.73,388.688,126.292Z" stroke="none"/>
      <path d="M 441.3527221679688 267.5265502929688 C 479.7480773925781 255.0511474609375 516.3753662109375 241.5012512207031 549.97216796875 227.5938568115234 C 584.007080078125 213.5050048828125 615.3319702148438 198.8834533691406 642.3900146484375 184.5167388916016 C 670.0946044921875 169.8066711425781 693.587890625 155.2244262695312 710.9605102539062 141.6819458007812 C 728.9017944335938 127.6961059570312 740.4432983398438 114.7190170288086 743.265869140625 103.8386993408203 C 746.1996459960938 92.52963256835938 739.500244140625 84.36031341552734 724.5029296875 79.41253662109375 C 708.95654296875 74.28361511230469 684.5797119140625 72.64434814453125 653.0963745117188 74.55821228027344 C 620.6905517578125 76.52815246582031 581.0817260742188 82.24226379394531 536.5709228515625 91.64427185058594 C 491.3028259277344 101.2062530517578 441.6325988769531 114.4412994384766 390.4679565429688 131.0657043457031 C 339.3032836914062 147.6901092529297 291.5645751953125 166.1051483154297 249.7199096679688 184.8478240966797 C 208.5752716064453 203.2769470214844 173.7261810302734 221.7557067871094 147.0139007568359 238.994384765625 C 121.062126159668 255.7422943115234 103.0443649291992 271.1564025878906 94.26967620849609 284.1877136230469 C 85.80487823486328 296.7588195800781 85.98753356933594 307.0455627441406 95.80989074707031 314.2098999023438 C 105.2598724365234 321.1026306152344 122.9389114379883 324.5853881835938 146.3058166503906 325.1493835449219 C 168.9319763183594 325.6954956054688 197.0474853515625 323.5090026855469 228.5491485595703 318.9817810058594 C 259.3155517578125 314.5602111816406 293.5961608886719 307.8652648925781 329.6467590332031 299.1819458007812 C 365.2331237792969 290.6103515625 402.9573669433594 280.0019836425781 441.3527221679688 267.5265502929688 M 442.3399963378906 270.1741638183594 C 402.6732482910156 283.0626831054688 364.0434875488281 293.9399108886719 327.7805480957031 302.6632995605469 C 291.0307006835938 311.5038146972656 256.2626037597656 318.2401428222656 225.0866546630859 322.6092529296875 C 193.1360321044922 327.0868835449219 164.6355133056641 329.1233215332031 141.5532073974609 328.3430480957031 C 117.6746673583984 327.5358276367188 99.40319061279297 323.7073669433594 89.15249633789062 316.3730163574219 C 78.46823120117188 308.7284545898438 77.49524688720703 298.0083618164062 85.39982604980469 285.0003662109375 C 93.61154937744141 271.4869384765625 111.3517608642578 255.5888977050781 137.45947265625 238.3124084472656 C 164.3721313476562 220.5032043457031 199.8841247558594 201.4217529296875 242.2756958007812 182.3228607177734 C 285.4206237792969 162.8845367431641 335.0214233398438 143.7297210693359 388.6880187988281 126.2923889160156 C 442.3546447753906 108.8550567626953 493.9766235351562 95.12059020996094 540.7266235351562 85.35025787353516 C 586.6603393554688 75.75054931640625 627.1898193359375 70.1246337890625 660.1322631835938 68.48574066162109 C 692.08935546875 66.89584350585938 716.5704345703125 69.0753173828125 731.9962768554688 74.90847015380859 C 746.8450317382812 80.5234375 753.2132568359375 89.49050140380859 749.9232788085938 101.6755828857422 C 746.7667846679688 113.3661727905273 734.990966796875 126.9576110839844 716.810302734375 141.4306793212891 C 699.2359008789062 155.421142578125 675.5405883789062 170.3441467285156 647.51708984375 185.3532867431641 C 620.1729125976562 199.9985046386719 588.4384765625 214.8701934814453 553.7507934570312 229.2411193847656 C 519.522705078125 243.4216461181641 482.0067138671875 257.28564453125 442.3399963378906 270.1741638183594 Z" stroke="none" fill="#ffcb74"/>
    </g>
    <path id="Path_22" data-name="Path 22" d="M-192.7,320.6,163.8,20.632l-21.265-.923-6.171,5.537L-150,52.633,107.876,17.361l8.584.64,11.8.949L-85.615,44.707l228.151-25Z" transform="matrix(0.94, -0.342, 0.342, 0.94, 810.681, 554.536)" fill="url(#radial-gradient)"/>
    <path id="Path_23" data-name="Path 23" d="M166.4,306.787l-102.237-83.2L306.086,106.529,67.708,220.119-30.053-1.979,64.91,209.641l2.8,10.478L50,218.43-2.037,169.441-20.5,153.985,5.487,171.034l51.9,42.653L-63.347-61.711,4.7,74.071,71.053,210.928l343.6-158.641L159.189,184.746,80.167,224.654l-2.91-6.913L215.781,346.254Zm-68.3-51.136Z" transform="matrix(0.94, -0.342, 0.342, 0.94, 825.925, 334.163)" fill="url(#radial-gradient-2)"/>
    <path id="Line_5" data-name="Line 5" d="M57.6,35.974,3.3,5.257-.828-.681,8.5,1.476,79.893,47.918Z" transform="matrix(0.848, 0.53, -0.53, 0.848, 968.247, 524.122)" fill="#ffcb75"/>
    <path id="Line_5-2" data-name="Line 5" d="M36.555,22.344,1.811,3.049-.828-.681,5.14.674,50.814,29.847Z" transform="matrix(-0.454, -0.891, 0.891, -0.454, 964.444, 508.719)" fill="#ffcb75"/>
  </g>
</svg>
